<svg id="visual" viewBox="0 0 900 600" width="900" height="600" xmlns="http://www.w3.org/2000/svg" xmlns:xlink="http://www.w3.org/1999/xlink" version="1.1"><rect x="0" y="0" width="900" height="600" fill="#a2a2a2"></rect><g transform="translate(425.6918875348053 317.6354793512369)"><path d="M356.9 -457.4C449.3 -424.1 501.9 -302.1 537.5 -178.1C573.2 -54 591.9 72.2 533.8 149.4C475.6 226.6 340.7 254.9 238.9 306.8C137.1 358.8 68.6 434.4 1.2 432.7C-66.1 431 -132.3 352 -239.1 301.7C-345.9 251.5 -493.5 229.9 -518.4 165.5C-543.4 101.2 -445.7 -6 -401 -126.2C-356.3 -246.4 -364.5 -379.6 -306.5 -424.1C-248.4 -468.6 -124.2 -424.3 4 -429.8C132.3 -435.4 264.5 -490.7 356.9 -457.4" fill="#121212"></path></g></svg>